<svg viewBox="0 0 256 256" width="256" height="256" xmlns="http://www.w3.org/2000/svg" xmlns:xlink="http://www.w3.org/1999/xlink" version="1.1">
    <rect x="0" y="0" width="100%" height="100%" fill="transparent" />
    <line  
        x1="128" x2="128" y1="100" y2="165"
        stroke="transparent" fill="transparent" stroke-width="20" stroke-linecap="round" stroke-linejoin="round"
    />
    <circle cx="128" cy="200" r="10" fill="transparent"/>
    <path 
        d="
            M32 240 
            L224 240 
            C244 240, 240 224, 240 224 
            L138 20 
            C133 10, 123 10, 118 20 
            L16 224 
            C16 224, 12 240, 32 240 
            Z
        " 
        fill="transparent" stroke="transparent" stroke-width="20" stroke-linecap="round" stroke-linejoin="round"/>
    
    <line  
        x1="128" x2="128" y1="83" y2="148"
        stroke="white" fill="transparent" stroke-width="20" stroke-linecap="round" stroke-linejoin="round"
    />
    <circle cx="128" cy="183" r="10" fill="white"/>
    <path
        d="
            M40 223 
            L216 223 
            C216 223, 232 191, 232 191
            L153 33 
            C153 33, 103 33, 103 33 
            L24 191 
            C24 191, 40 223, 40 223
            Z
        " 
        fill="transparent" stroke="white" stroke-width="20" stroke-linecap="round" stroke-linejoin="round"/>

</svg>